# xmcd
#
# Track frame offsets:
#	150
#	13357
#	28738
#	45281
#	60897
#	79201
#	93228
#	108974
#	122676
#	134930
#	146988
#	162028
#	175170
#
# Disc length: 2519 seconds
#
# Revision: 1
# Processed by: cddbd v1.5.2PL0 Copyright (c) Steve Scherf et al.
# Submitted via: dBpowerAMP V4.0
#
DISCID=ac09d50d
DTITLE=Country Expressen - Country Forever
DYEAR=2006
DGENRE=Country
TTITLE0=Under your spell again
TTITLE1=Daddy Frank
TTITLE2=Never again, again
TTITLE3=Blue Moon of Kentucky
TTITLE4=Fight inside of me
TTITLE5=Crystal Candeler
TTITLE6=San quentin
TTITLE7=Every little thing
TTITLE8=Paper roses
TTITLE9=San Antonio stroll
TTITLE10=Good girls a gonna go bad
TTITLE11=My own peculter way
TTITLE12=Brevet til far
EXTD=
EXTT0=
EXTT1=
EXTT2=
EXTT3=
EXTT4=
EXTT5=
EXTT6=
EXTT7=
EXTT8=
EXTT9=
EXTT10=
EXTT11=
EXTT12=
PLAYORDER=
